<svg width="101" height="202" viewBox="0 0 101 202" xmlns="http://www.w3.org/2000/svg" xmlns:xlink="http://www.w3.org/1999/xlink"><title>Artboard</title><defs><path d="M.133 5.935c0 3.317 1.848 5.933 5.665 5.933 2.894 0 4.765-1.743 5.082-3.68H8.206c-.317.798-.9 1.476-2.408 1.476-2.211 0-2.917-1.308-3.04-2.93h8.097c.122-.726.122-1.258.122-1.646 0-2.882-2.31-5.086-5.25-5.086C2.151.002.132 2.545.132 5.935zm5.52-3.948c1.604 0 2.747 1.066 2.747 2.786H2.76c0-1.84 1.264-2.786 2.893-2.786z" id="a"/><path d="M.059.063v16.952h2.65v-5.837c0-1.937.876-3.415 2.723-3.415 1.896 0 2.456 1.478 2.456 3.415v5.837h2.65v-6.709c0-1.55-.17-2.493-.728-3.342-.634-.944-1.776-1.525-3.405-1.525-1.678 0-2.99.653-3.696 1.864V.063H.06z" id="c"/><path id="e" d="M.09.063h2.65v16.951H.09z"/><path d="M.001 5.935c0 3.197 2.358 5.933 5.81 5.933 1.314 0 2.796-.678 3.502-1.816v1.525h2.65V.292h-2.65v1.525C8.607.68 7.125.002 5.81.002 2.359.002 0 2.738 0 5.935zm2.65 0c0-1.937 1.312-3.584 3.307-3.584 2.042 0 3.355 1.647 3.355 3.584S8 9.52 5.958 9.52c-1.995 0-3.306-1.648-3.306-3.585z" id="g"/><path d="M.037.063v16.951h2.65V15.49c.706 1.138 2.188 1.816 3.503 1.816 3.45 0 5.81-2.736 5.81-5.933C12 8.176 9.64 5.44 6.19 5.44c-1.315 0-2.797.677-3.502 1.815V.063H.037zm2.65 11.309c0-1.938 1.313-3.584 3.355-3.584 1.995 0 3.307 1.646 3.307 3.584 0 1.937-1.312 3.585-3.307 3.585-2.042 0-3.354-1.648-3.354-3.585z" id="i"/><path d="M.052.197V17.57h7.319c4.827 0 5.762-3.102 5.762-4.808 0-2.638-2.024-4.032-3.114-4.032 1.401-.311 3.114-1.708 3.114-3.879 0-1.86-.935-4.653-5.607-4.653H.052zm4.049 2.947h2.49c2.026 0 2.493 1.241 2.493 2.016 0 .93-.467 2.016-2.493 2.016h-2.49V3.144zm0 6.98h2.49c1.87 0 2.337 1.396 2.337 2.172.156 1.086-.311 2.17-2.337 2.17h-2.49v-4.343z" id="k"/><path d="M.15.189v7.134c0 1.707.155 2.949.935 3.879.622.775 1.867 1.396 3.425 1.396 1.869 0 3.27-.777 3.893-2.016v1.706h3.894V.344H8.403v5.894c0 1.861-.778 3.103-2.335 3.103-1.558 0-2.181-1.242-2.181-2.948V.19H.15z" id="m"/><path id="o" d="M.412.189v3.257h4.983L.101 12.133h11.056V8.874H6.02L11.313.189z"/><path id="q" d="M.43.189v3.257h4.984L.118 12.133h11.057V8.874H6.036L11.332.189z"/><path d="M.052.11v17.372h7.319c4.827 0 5.762-3.102 5.762-4.807 0-2.638-2.024-4.033-3.114-4.033 1.401-.311 3.114-1.708 3.114-3.878 0-1.861-.935-4.654-5.607-4.654H.052zm4.049 2.946h2.49c2.026 0 2.493 1.243 2.493 2.018 0 .93-.467 2.016-2.493 2.016h-2.49V3.056zm0 6.98h2.49c1.87 0 2.337 1.397 2.337 2.173.156 1.085-.311 2.171-2.337 2.171h-2.49v-4.343z" id="s"/><path d="M3.989 2.172V.31H.096v11.944H3.99V7.6c0-2.947 1.403-4.031 3.427-4.031.466 0 .778 0 1.401.153V.311c-.31-.155-.623-.155-1.09-.155A3.668 3.668 0 0 0 7.4.14c-1.581 0-2.973 1.016-3.411 2.03z" id="u"/><path d="M.133 6.36c0 3.413 2.49 6.36 6.696 6.36 4.203 0 6.696-2.947 6.696-6.36 0-3.567-2.493-6.359-6.696-6.359C2.624.001.133 2.947.133 6.361zm3.893-.154c0-1.708 1.09-3.103 2.803-3.103 1.711 0 2.957 1.395 2.957 3.103 0 1.705-1.246 3.101-2.957 3.101-1.713 0-2.803-1.396-2.803-3.101z" id="w"/><path d="M2.054.09v3.567H.186v2.791h1.868v5.12c0 4.033 2.493 4.187 4.205 4.187 1.09 0 2.024-.154 2.491-.154v-2.947h-1.4c-.779.155-1.558-.157-1.558-1.861V6.448h2.805v-2.79H5.791V.09H2.054z" id="y"/><path d="M.057.111v17.37h3.736v-6.049c0-1.86.78-3.102 2.337-3.102 1.557 0 2.18 1.243 2.18 2.947v6.205h3.738v-7.134c0-1.707-.157-2.949-.935-3.879-.78-.775-1.868-1.24-3.426-1.24-1.87 0-3.27.777-3.894 2.017V.11H.057z" id="A"/><path d="M.009 6.36c0 3.723 2.334 6.359 6.54 6.359 3.424 0 5.605-1.86 5.916-4.032H8.73c-.313.776-.935 1.396-2.18 1.396-2.024 0-2.65-1.241-2.65-2.636h8.722c.156-.776.156-1.243.156-1.706-.312-3.259-2.646-5.74-6.385-5.74C2.19.002.01 2.795.01 6.362zm6.227-3.878c1.402 0 2.493.932 2.493 2.483H3.746c0-1.551 1.089-2.483 2.49-2.483z" id="C"/><path d="M4.003 2.172V.31H.11v11.944h3.893V7.6c0-2.947 1.402-4.031 3.426-4.031.468 0 .778 0 1.402.153V.311C8.52.156 8.207.156 7.74.156A3.668 3.668 0 0 0 7.412.14c-1.58 0-2.973 1.016-3.41 2.03z" id="E"/><path d="M.196 3.778c0 2.327 1.712 2.946 3.736 3.567 2.336.776 3.271.93 3.271 1.861 0 .775-.623 1.087-1.557 1.087-1.09 0-1.868-.467-1.868-1.707H.038c0 2.791 2.182 4.342 5.608 4.342 2.958 0 5.448-1.086 5.448-3.878-.31-2.481-2.024-3.1-4.203-3.72-2.024-.622-3.113-.777-3.113-1.707 0-.776.62-1.086 1.4-1.086 1.09 0 1.557.62 1.557 1.551h3.893c0-2.326-1.712-4.033-5.14-4.033C2.22.055.197 1.296.197 3.778z" id="G"/><path d="M.052.172v5.273h71.32c1.402 0 2.647 1.24 2.647 2.637 0 1.395-1.245 2.636-2.647 2.636H.052v5.275h71.32c4.515 0 7.942-3.568 7.942-7.91 0-4.344-3.581-7.911-7.942-7.911H.052z" id="I"/><path d="M.052.172v5.274h71.32c1.402 0 2.647 1.242 2.647 2.638s-1.245 2.636-2.647 2.636H.052v5.274h71.32c4.36 0 7.942-3.567 7.942-7.91 0-4.344-3.427-7.912-7.942-7.912H.052z" id="K"/><path d="M.052.081v5.275h71.32c7.32 0 13.235 5.893 13.235 13.183s-5.915 13.184-13.235 13.184H.052v5.273h71.32c10.122 0 18.532-8.222 18.532-18.457 0-6.204-3.115-11.789-7.943-15.046C79 1.323 75.42.081 71.372.081H.052z" id="M"/><path d="M.052.08v5.273h71.32c7.32 0 13.236 5.893 13.236 13.185 0 7.288-5.916 13.182-13.236 13.182H.052v5.273h71.32c3.894 0 7.475-1.24 10.433-3.257 4.829-3.257 7.942-8.84 7.942-15.198C89.747 8.455 81.494.08 71.217.08H.052z" id="O"/><path d="M.053.09v5.273h71.319c13.08 0 23.825 10.702 23.825 23.73 0 7.135-3.114 13.34-8.097 17.682-1.402 1.241-3.113 2.326-4.827 3.257 1.714.62 3.425 1.706 4.827 3.103 4.983 4.343 8.097 10.7 8.097 17.681 0 13.029-10.59 23.732-23.825 23.732H.053v5.273h71.319c4.983 0 9.81-1.24 13.86-3.567 1.711-.932 3.27-1.863 4.671-3.103 1.4-1.24 2.804-2.48 3.893-3.878.622-.775 1.089-1.396 1.713-2.17a27.934 27.934 0 0 0 4.205-9.617c.31-1.087.467-2.171.622-3.257.156-1.087.156-2.172.156-3.256 0-1.553-.156-2.949-.311-4.344-.467-2.948-1.247-5.584-2.491-8.066-.623-1.242-1.248-2.481-2.026-3.568-1.246-1.705-2.647-3.412-4.205-4.808.935-.776 1.715-1.704 2.493-2.635 4.205-4.964 6.697-11.48 6.697-18.459C100.649 13.118 87.569.09 71.527.09H.053z" id="Q"/><path id="S" d="M.051.026H15.78v1.383H.051z"/></defs><g fill="none" fill-rule="evenodd"><path fill="#FEFEFE" d="M.035 184.251v2.495h4.231v14.456H7.08v-14.456h4.255v-2.495zm13.388 10.147h5.642c0-1.72-1.144-2.786-2.748-2.786-1.63 0-2.894.945-2.894 2.786zm0 1.962c.122 1.621.828 2.929 3.04 2.929 1.507 0 2.09-.678 2.407-1.477h2.674c-.316 1.938-2.187 3.681-5.081 3.681-3.818 0-5.665-2.616-5.665-5.933 0-3.39 2.018-5.933 5.593-5.933 2.94 0 5.25 2.204 5.25 5.086 0 .388 0 .92-.122 1.647h-8.096z"/><g transform="translate(10.665 189.625)"><mask id="b" fill="#fff"><use xlink:href="#a"/></mask><path fill="#FEFEFE" mask="url(#b)" d="M-3.89 15.892H15V-4.022H-3.89z"/></g><path d="M32.07 194.034c-.146-1.235-.875-2.057-2.674-2.057-2.044 0-3.04 1.67-3.04 3.583 0 1.937.924 3.584 3.21 3.584 1.555 0 2.187-.678 2.529-1.815h2.649c-.364 2.348-2.09 4.165-5.372 4.165-3.696 0-5.666-2.86-5.666-5.934 0-3.052 1.97-5.934 5.641-5.934 3.695 0 5.203 2.229 5.372 4.408h-2.65zm5.42-9.783h2.65v7.24c.706-1.211 2.017-1.864 3.696-1.864 1.629 0 2.77.58 3.404 1.525.559.85.73 1.793.73 3.342v6.708h-2.651v-5.836c0-1.937-.56-3.415-2.456-3.415-1.848 0-2.723 1.478-2.723 3.415v5.836h-2.65v-16.95z" fill="#FEFEFE"/><g transform="translate(37.43 184.188)"><mask id="d" fill="#fff"><use xlink:href="#c"/></mask><path fill="#FEFEFE" mask="url(#d)" d="M-3.965 21.039h18.528v-25H-3.965z"/></g><path fill="#FEFEFE" d="M51.321 201.202h2.651v-16.95h-2.65z"/><g transform="translate(51.232 184.188)"><mask id="f" fill="#fff"><use xlink:href="#e"/></mask><path fill="#FEFEFE" mask="url(#f)" d="M-3.935 21.039h10.7v-25h-10.7z"/></g><path d="M65.981 195.56c0-1.938-1.312-3.584-3.354-3.584-1.995 0-3.307 1.646-3.307 3.584 0 1.937 1.312 3.585 3.307 3.585 2.042 0 3.354-1.648 3.354-3.585zm2.65-5.643v11.285h-2.65v-1.525c-.705 1.138-2.188 1.816-3.502 1.816-3.452 0-5.81-2.736-5.81-5.933 0-3.197 2.358-5.933 5.81-5.933 1.314 0 2.797.677 3.502 1.815v-1.525h2.65z" fill="#FEFEFE"/><g transform="translate(56.669 189.625)"><mask id="h" fill="#fff"><use xlink:href="#g"/></mask><path fill="#FEFEFE" mask="url(#h)" d="M-4.023 15.892h20.01V-4.023h-20.01z"/></g><path d="M81.492 195.56c0-1.938-1.312-3.584-3.307-3.584-2.042 0-3.354 1.646-3.354 3.584 0 1.937 1.312 3.585 3.354 3.585 1.995 0 3.307-1.648 3.307-3.585zm-6.661 5.642H72.18v-16.951h2.65v7.19c.706-1.137 2.188-1.814 3.503-1.814 3.45 0 5.809 2.736 5.809 5.933 0 3.197-2.359 5.933-5.81 5.933-1.314 0-2.796-.678-3.501-1.816v1.525z" fill="#FEFEFE"/><g transform="translate(72.143 184.188)"><mask id="j" fill="#fff"><use xlink:href="#i"/></mask><path fill="#FEFEFE" mask="url(#j)" d="M-3.987 21.329h20.01v-25.29h-20.01z"/></g><path d="M4.1 136.131v-4.343h2.491c1.87 0 2.337 1.396 2.337 2.172.155 1.086-.311 2.171-2.337 2.171h-2.49zm0-11.322h2.491c2.026 0 2.492 1.24 2.492 2.016 0 .93-.466 2.016-2.492 2.016h-2.49v-4.032zm9.033 9.616c0-2.637-2.024-4.032-3.115-4.032 1.402-.311 3.115-1.707 3.115-3.878 0-1.862-.935-4.654-5.607-4.654H.052v17.372h7.319c4.827 0 5.762-3.102 5.762-4.808z" fill="#FEFEFE"/><g transform="translate(0 121.664)"><mask id="l" fill="#fff"><use xlink:href="#k"/></mask><path fill="#FEFEFE" mask="url(#l)" d="M-3.972 21.593h21.13v-25.42h-21.13z"/></g><path d="M27.77 139.389v-11.944h-3.893v5.894c0 1.862-.778 3.103-2.335 3.103s-2.181-1.241-2.181-2.947v-6.205h-3.737v7.134c0 1.708.155 2.949.935 3.879.622.775 1.867 1.396 3.426 1.396 1.868 0 3.27-.776 3.892-2.016v1.706h3.894z" fill="#FEFEFE"/><g transform="translate(15.474 127.101)"><mask id="n" fill="#fff"><use xlink:href="#m"/></mask><path fill="#FEFEFE" mask="url(#n)" d="M-3.874 16.622H16.32V-3.835H-3.874z"/></g><path fill="#FEFEFE" d="M30.106 127.29v3.257h4.983l-5.295 8.687h11.057v-3.259h-5.139l5.295-8.685z"/><g transform="translate(29.694 127.101)"><mask id="p" fill="#fff"><use xlink:href="#o"/></mask><path fill="#FEFEFE" mask="url(#p)" d="M-3.923 16.157h19.26V-3.835h-19.26z"/></g><path fill="#FEFEFE" d="M42.253 127.29v3.257h4.983l-5.296 8.687h11.057v-3.259h-5.139l5.296-8.685z"/><g transform="translate(41.822 127.101)"><mask id="r" fill="#fff"><use xlink:href="#q"/></mask><path fill="#FEFEFE" mask="url(#r)" d="M-3.906 16.157h19.262V-3.835H-3.906z"/></g><path d="M4.1 158v-4.343h2.491c1.87 0 2.337 1.397 2.337 2.173.155 1.085-.311 2.17-2.337 2.17h-2.49zm0-11.323h2.491c2.026 0 2.492 1.242 2.492 2.017 0 .931-.466 2.016-2.492 2.016h-2.49v-4.033zm9.033 9.62c0-2.64-2.024-4.034-3.115-4.034 1.402-.312 3.115-1.708 3.115-3.879 0-1.86-.935-4.653-5.607-4.653H.052v17.372h7.319c4.827 0 5.762-3.102 5.762-4.807z" fill="#FEFEFE"/><g transform="translate(0 143.62)"><mask id="t" fill="#fff"><use xlink:href="#s"/></mask><path fill="#FEFEFE" mask="url(#t)" d="M-3.972 21.507h21.13v-25.42h-21.13z"/></g><path d="M19.672 151.02v-1.86h-3.893v11.943h3.893v-4.653c0-2.947 1.403-4.032 3.427-4.032.467 0 .778 0 1.402.153v-3.412c-.312-.155-.624-.155-1.09-.155-1.714-.153-3.271.932-3.74 2.016" fill="#FEFEFE"/><g transform="translate(15.683 148.848)"><mask id="v" fill="#fff"><use xlink:href="#u"/></mask><path fill="#FEFEFE" mask="url(#v)" d="M-3.928 16.279h16.77V-3.883h-16.77z"/></g><path d="M32.131 158.156c-1.713 0-2.803-1.396-2.803-3.102 0-1.707 1.09-3.102 2.803-3.102 1.711 0 2.958 1.395 2.958 3.102 0 1.706-1.247 3.102-2.958 3.102m0-9.306c-4.205 0-6.696 2.945-6.696 6.359 0 3.412 2.491 6.36 6.696 6.36 4.204 0 6.696-2.948 6.696-6.36 0-3.567-2.492-6.36-6.696-6.36" fill="#FEFEFE"/><g transform="translate(25.302 148.848)"><mask id="x" fill="#fff"><use xlink:href="#w"/></mask><path fill="#FEFEFE" mask="url(#x)" d="M-3.891 16.744h21.44V-4.023h-21.44z"/></g><path d="M45.522 156.296v-4.345h2.805v-2.791h-2.805v-3.567h-3.737v3.567h-1.868v2.79h1.868v5.12c0 4.034 2.492 4.188 4.205 4.188 1.09 0 2.024-.154 2.491-.154v-2.948H47.08c-.777.156-1.557-.156-1.557-1.86" fill="#FEFEFE"/><g transform="translate(39.73 145.503)"><mask id="z" fill="#fff"><use xlink:href="#y"/></mask><path fill="#FEFEFE" mask="url(#z)" d="M-3.838 19.779h16.613V-3.934H-3.838z"/></g><path d="M58.292 148.85c-1.87 0-3.27.776-3.894 2.016v-7.134h-3.737v17.37h3.737v-6.049c0-1.86.78-3.102 2.337-3.102 1.557 0 2.18 1.243 2.18 2.947v6.205h3.738v-7.134c0-1.707-.157-2.95-.935-3.879-.78-.775-1.869-1.24-3.426-1.24" fill="#FEFEFE"/><g transform="translate(50.605 143.62)"><mask id="B" fill="#fff"><use xlink:href="#A"/></mask><path fill="#FEFEFE" mask="url(#B)" d="M-3.967 21.506h20.04V-3.913h-20.04z"/></g><path d="M68.57 153.813c0-1.55 1.089-2.482 2.49-2.482 1.402 0 2.493.931 2.493 2.482H68.57zm2.646-4.963c-4.203 0-6.383 2.792-6.383 6.36 0 3.722 2.334 6.357 6.54 6.357 3.424 0 5.605-1.86 5.916-4.032h-3.736c-.313.777-.935 1.397-2.18 1.397-2.024 0-2.65-1.242-2.65-2.636h8.722c.156-.777.156-1.243.156-1.707-.312-3.258-2.647-5.739-6.385-5.739z" fill="#FEFEFE"/><g transform="translate(64.824 148.848)"><mask id="D" fill="#fff"><use xlink:href="#C"/></mask><path fill="#FEFEFE" mask="url(#D)" d="M-4.015 16.743H16.8V-4.023H-4.015z"/></g><path d="M83.674 151.02v-1.86H79.78v11.943h3.894v-4.653c0-2.947 1.402-4.032 3.426-4.032.468 0 .778 0 1.402.153v-3.412c-.311-.155-.624-.155-1.09-.155-1.714-.153-3.271.932-3.738 2.016" fill="#FEFEFE"/><g transform="translate(79.67 148.848)"><mask id="F" fill="#fff"><use xlink:href="#E"/></mask><path fill="#FEFEFE" mask="url(#F)" d="M-3.915 16.279h16.77V-3.883h-16.77z"/></g><path d="M96.599 153.969c-2.024-.622-3.113-.777-3.113-1.706 0-.777.62-1.087 1.4-1.087 1.09 0 1.557.62 1.557 1.551h3.893c0-2.326-1.712-4.033-5.139-4.033-3.269 0-5.293 1.241-5.293 3.723 0 2.328 1.712 2.946 3.736 3.568 2.336.776 3.271.93 3.271 1.86 0 .775-.623 1.087-1.557 1.087-1.09 0-1.868-.466-1.868-1.706h-3.74c0 2.79 2.182 4.342 5.608 4.342 2.957 0 5.449-1.086 5.449-3.879-.31-2.48-2.025-3.1-4.204-3.72" fill="#FEFEFE"/><g transform="translate(89.708 148.64)"><mask id="H" fill="#fff"><use xlink:href="#G"/></mask><path fill="#FEFEFE" mask="url(#H)" d="M-3.986 16.953h19.104V-3.97H-3.986z"/></g><path d="M79.314 28.955c0-4.343-3.581-7.91-7.942-7.91H.052v5.273h71.32c1.402 0 2.647 1.24 2.647 2.637 0 1.395-1.245 2.636-2.647 2.636H.052v5.275h71.32c4.515 0 7.942-3.567 7.942-7.91" fill="#FEFEFE"/><g transform="translate(0 20.873)"><mask id="J" fill="#fff"><use xlink:href="#I"/></mask><path fill="#FEFEFE" mask="url(#J)" d="M-3.972 20.017h87.31v-23.87h-87.31z"/></g><path d="M79.314 70.988c0-4.343-3.427-7.912-7.942-7.912H.052v5.275h71.32c1.402 0 2.647 1.24 2.647 2.637 0 1.396-1.245 2.636-2.647 2.636H.052v5.275h71.32c4.36 0 7.942-3.567 7.942-7.91" fill="#FEFEFE"/><g transform="translate(0 62.904)"><mask id="L" fill="#fff"><use xlink:href="#K"/></mask><path fill="#FEFEFE" mask="url(#L)" d="M-3.972 20.018h87.31v-23.87h-87.31z"/></g><path d="M89.904 70.988c0-6.204-3.115-11.789-7.943-15.046-2.96-2.17-6.54-3.412-10.589-3.412H.052v5.275h71.32c7.32 0 13.235 5.893 13.235 13.183s-5.915 13.184-13.235 13.184H.052v5.273h71.32c10.122 0 18.532-8.222 18.532-18.457" fill="#FEFEFE"/><g transform="translate(0 52.449)"><mask id="N" fill="#fff"><use xlink:href="#M"/></mask><path fill="#FEFEFE" mask="url(#N)" d="M-3.972 41.02h97.9V-3.943h-97.9z"/></g><path d="M81.805 44.154c4.829-3.257 7.942-8.84 7.942-15.198 0-10.083-8.253-18.458-18.53-18.458H.052v5.273h71.32c7.32 0 13.236 5.893 13.236 13.185 0 7.288-5.916 13.182-13.236 13.182H.052v5.273h71.32c3.894 0 7.475-1.24 10.433-3.257" fill="#FEFEFE"/><g transform="translate(0 10.418)"><mask id="P" fill="#fff"><use xlink:href="#O"/></mask><path fill="#FEFEFE" mask="url(#P)" d="M-3.972 41.018H93.77V-3.944H-3.972z"/></g><path d="M85.232 96.425c1.711-.931 3.27-1.862 4.672-3.102 1.4-1.241 2.803-2.481 3.892-3.879.622-.774 1.09-1.396 1.713-2.17a27.928 27.928 0 0 0 4.205-9.617c.31-1.086.467-2.17.622-3.257.156-1.086.156-2.171.156-3.256 0-1.552-.156-2.949-.311-4.343-.467-2.949-1.247-5.585-2.491-8.067-.622-1.241-1.248-2.48-2.025-3.567-1.247-1.706-2.648-3.412-4.206-4.808.935-.777 1.715-1.705 2.492-2.636 4.206-4.963 6.698-11.479 6.698-18.458C100.649 13.289 87.569.26 71.528.26H.053v5.274h71.319c13.08 0 23.826 10.701 23.826 23.73 0 7.134-3.115 13.34-8.098 17.682-1.402 1.24-3.113 2.326-4.827 3.257 1.714.62 3.425 1.706 4.827 3.102 4.983 4.343 8.098 10.701 8.098 17.682 0 13.028-10.59 23.731-23.826 23.731H.053v5.273h71.319c4.983 0 9.81-1.24 13.86-3.567" fill="#FEFEFE"/><g transform="translate(0 .171)"><mask id="R" fill="#fff"><use xlink:href="#Q"/></mask><path fill="#FEFEFE" mask="url(#R)" d="M-3.971 103.845h108.644V-3.935H-3.971z"/></g><path fill="#FEFEFE" d="M.051 174.096H15.78v-1.383H.051z"/><g transform="translate(0 172.687)"><mask id="T" fill="#fff"><use xlink:href="#S"/></mask><path fill="#FEFEFE" mask="url(#T)" d="M-3.973 5.434h23.777v-9.432H-3.973z"/></g></g></svg>