<svg width="441" height="87" viewBox="0 0 441 87" xmlns="http://www.w3.org/2000/svg"><title>logo</title><path d="M10.396 1.2L9.36 11H7.75l.644-6.062L5.3 11H4.082L2.276 4.938 1.632 11H.022l1.036-9.8h1.54l2.366 7.294L8.856 1.2h1.54zm14.546 1.442h-4.046l-.294 2.772h4.046l-.154 1.442h-4.046l-.28 2.702h4.046L24.06 11h-5.656l1.036-9.8h5.656l-.154 1.442zm14.63 0h-4.046l-.294 2.772h4.046l-.154 1.442h-4.046l-.28 2.702h4.046L38.69 11h-5.656l1.036-9.8h5.656l-.154 1.442zM49.204 11l.882-8.358h-2.422l.154-1.442h6.468l-.154 1.442h-2.436L50.814 11h-1.61zm27.314.238c-2.982 0-4.606-2.212-4.606-4.634 0-2.884 2.282-5.642 5.6-5.642 2.982 0 4.592 2.212 4.592 4.634 0 2.884-2.268 5.642-5.586 5.642zm.14-1.442c2.198 0 3.752-2.016 3.752-4.088 0-1.736-1.092-3.304-3.038-3.304-2.212 0-3.752 2.016-3.752 4.088 0 1.722 1.078 3.304 3.038 3.304zM91.022 11l.882-8.358h-2.422l.154-1.442h6.468l-.154 1.442h-2.436L92.632 11h-1.61zm17.864 0l.434-4.144h-4.046L104.84 11h-1.61l1.036-9.8h1.61l-.448 4.214h4.046l.448-4.214h1.61l-1.036 9.8h-1.61zm17.192-8.358h-4.046l-.294 2.772h4.046l-.154 1.442h-4.046l-.28 2.702h4.046L125.196 11h-5.656l1.036-9.8h5.656l-.154 1.442zM134.17 11l1.036-9.8h3.514c1.946 0 3.108 1.414 3.108 3.108 0 1.54-.952 2.912-2.422 3.5l1.61 3.192h-1.834l-1.484-2.94h-1.61L135.78 11h-1.61zm3.976-4.382c1.204 0 2.072-1.022 2.072-2.184 0-.98-.616-1.792-1.652-1.792h-1.904l-.42 3.976h1.904zM160.196 11l1.036-9.8h3.514c1.946 0 3.108 1.414 3.108 3.108 0 1.988-1.582 3.752-3.836 3.752h-1.904l-.308 2.94h-1.61zm3.976-4.382c1.204 0 2.072-1.022 2.072-2.184 0-.98-.616-1.792-1.652-1.792h-1.904l-.42 3.976h1.904zM175.54 11l1.036-9.8h3.514c1.946 0 3.108 1.414 3.108 3.108 0 1.54-.952 2.912-2.422 3.5l1.61 3.192h-1.834l-1.484-2.94h-1.61L177.15 11h-1.61zm3.976-4.382c1.204 0 2.072-1.022 2.072-2.184 0-.98-.616-1.792-1.652-1.792h-1.904l-.42 3.976h1.904zm16.156 4.62c-2.982 0-4.606-2.212-4.606-4.634 0-2.884 2.282-5.642 5.6-5.642 2.982 0 4.592 2.212 4.592 4.634 0 2.884-2.268 5.642-5.586 5.642zm.14-1.442c2.198 0 3.752-2.016 3.752-4.088 0-1.736-1.092-3.304-3.038-3.304-2.212 0-3.752 2.016-3.752 4.088 0 1.722 1.078 3.304 3.038 3.304zm19.992-7.154h-4.046l-.336 3.108h4.046l-.14 1.442h-4.046L210.876 11h-1.61l1.036-9.8h5.656l-.154 1.442zm14.532 0h-4.046l-.294 2.772h4.046l-.154 1.442h-4.046l-.28 2.702h4.046L229.454 11h-5.656l1.036-9.8h5.656l-.154 1.442zm8.008 5.152h1.61c-.14 1.274.588 2.002 1.652 2.002.994 0 1.806-.63 1.806-1.582 0-.882-.714-1.176-1.4-1.428-1.666-.616-2.926-1.148-2.926-2.8 0-1.876 1.624-3.024 3.332-3.024 1.82 0 2.996 1.288 2.814 3.066h-1.61c.098-.966-.378-1.624-1.33-1.624-.826 0-1.582.49-1.582 1.33 0 .756.63 1.106 1.288 1.358 1.568.602 3.052 1.134 3.052 2.926 0 1.96-1.75 3.22-3.654 3.22-1.932 0-3.276-1.316-3.052-3.444zm14.966 0h1.61c-.14 1.274.588 2.002 1.652 2.002.994 0 1.806-.63 1.806-1.582 0-.882-.714-1.176-1.4-1.428-1.666-.616-2.926-1.148-2.926-2.8 0-1.876 1.624-3.024 3.332-3.024 1.82 0 2.996 1.288 2.814 3.066h-1.61c.098-.966-.378-1.624-1.33-1.624-.826 0-1.582.49-1.582 1.33 0 .756.63 1.106 1.288 1.358 1.568.602 3.052 1.134 3.052 2.926 0 1.96-1.75 3.22-3.654 3.22-1.932 0-3.276-1.316-3.052-3.444zM268.36 11l1.036-9.8h1.666l-1.036 9.8h-1.666zm15.316.238c-2.982 0-4.606-2.212-4.606-4.634 0-2.884 2.282-5.642 5.6-5.642 2.982 0 4.592 2.212 4.592 4.634 0 2.884-2.268 5.642-5.586 5.642zm.14-1.442c2.198 0 3.752-2.016 3.752-4.088 0-1.736-1.092-3.304-3.038-3.304-2.212 0-3.752 2.016-3.752 4.088 0 1.722 1.078 3.304 3.038 3.304zM300.07 1.2l3.136 6.972.742-6.972h1.61l-1.036 9.8h-1.764l-3.15-6.972L298.88 11h-1.61l1.036-9.8h1.764zm20.426 9.8h-1.694l-.294-1.246h-3.682L314.28 11h-1.694l4.424-9.8h1.134l2.352 9.8zm-2.324-2.688l-.882-4.438-1.82 4.438h2.702zm12.152 1.246h3.024L333.194 11h-4.634l1.036-9.8h1.61l-.882 8.358zm11.158-1.764h1.61c-.14 1.274.588 2.002 1.652 2.002.994 0 1.806-.63 1.806-1.582 0-.882-.714-1.176-1.4-1.428-1.666-.616-2.926-1.148-2.926-2.8 0-1.876 1.624-3.024 3.332-3.024 1.82 0 2.996 1.288 2.814 3.066h-1.61c.098-.966-.378-1.624-1.33-1.624-.826 0-1.582.49-1.582 1.33 0 .756.63 1.106 1.288 1.358 1.568.602 3.052 1.134 3.052 2.926 0 1.96-1.75 3.22-3.654 3.22-1.932 0-3.276-1.316-3.052-3.444zm30.156 3.444c-2.982 0-4.606-2.212-4.606-4.634 0-2.884 2.282-5.642 5.6-5.642 2.982 0 4.592 2.212 4.592 4.634 0 2.884-2.268 5.642-5.586 5.642zm.14-1.442c2.198 0 3.752-2.016 3.752-4.088 0-1.736-1.092-3.304-3.038-3.304-2.212 0-3.752 2.016-3.752 4.088 0 1.722 1.078 3.304 3.038 3.304zM388.032 1.2l3.136 6.972.742-6.972h1.61l-1.036 9.8h-1.764l-3.15-6.972-.728 6.972h-1.61l1.036-9.8h1.764zM15.592 75.48h13.532L28.104 85H3.556l5.032-47.6h11.016l-4.012 38.08zm54.993-29.24h-18.02L51.41 57.052h18.02l-.884 8.636h-18.02L49.437 76.16h18.02L66.505 85H37.47l5.032-47.6h29.036l-.952 8.84zM85.526 85l4.012-38.08H78.794l1.02-9.52h32.572l-1.02 9.52h-10.812L96.542 85H85.526zm30.242-15.776h11.016c-.544 5.032 2.176 8.228 6.664 8.228 3.876 0 6.936-2.448 6.936-6.052 0-3.468-2.856-4.692-6.732-6.188-8.16-3.128-14.552-5.78-14.552-14.144 0-9.86 8.908-14.892 18.292-14.892 11.152 0 16.116 7.072 15.232 15.164h-11.016c.476-4.352-1.428-6.868-5.236-6.868-3.264 0-6.256 1.904-6.256 5.236 0 2.992 2.516 4.556 6.188 5.916 8.024 2.924 15.164 5.644 15.164 14.552 0 9.656-8.296 16.048-19.244 16.048-11.084 0-17.544-6.528-16.456-17zm61.997-8.568l-.884 8.296h-17.204l.884-8.296h17.204zM240.578 37.4L235.546 85h-10.744l3.128-29.512L214.534 85h-8.16l-7.48-29.512L195.766 85h-10.744l5.032-47.6h12.716l9.18 33.116L228.066 37.4h12.512zm40.305 8.84h-18.02l-1.156 10.812h18.02l-.884 8.636h-18.02l-1.088 10.472h18.02l-.952 8.84h-29.036l5.032-47.6h29.036l-.952 8.84zm40.85 0h-18.02l-1.157 10.812h18.02l-.884 8.636h-18.02l-1.088 10.472h18.02l-.952 8.84h-29.036l5.032-47.6h29.036l-.952 8.84zM336.672 85l4.012-38.08H329.94l1.02-9.52h32.572l-1.02 9.52H351.7L347.69 85h-11.016zm21.81-5.576c0-4.012 3.468-7.412 7.548-7.412 3.672 0 6.256 2.788 6.256 6.188 0 4.012-3.468 7.412-7.548 7.412-3.672 0-6.256-2.788-6.256-6.188zM382.672 85l5.032-47.6h11.152L393.824 85h-11.152zm30.58 0l4.013-38.08H406.52l1.02-9.52h32.572l-1.02 9.52H428.28L424.269 85h-11.016z" fill="#FFF" fill-rule="evenodd"/></svg>