<svg width="27" height="25" viewBox="0 0 27 25" xmlns="http://www.w3.org/2000/svg"><title>out</title><path d="M25.927 24.942H12.376a.603.603 0 0 1-.597-.606c0-.333.269-.606.597-.606H25.33V1.512H12.376a.603.603 0 0 1-.597-.606c0-.334.269-.606.597-.606h13.55c.329 0 .598.272.598.606v23.43c0 .334-.24.606-.597.606zM8.407 18.73L.586 13.06a.6.6 0 0 1 0-1l7.82-5.668a.61.61 0 0 1 .835.152.63.63 0 0 1-.15.848L2.796 11.97H23.57c.328 0 .597.273.597.607a.603.603 0 0 1-.597.606H2.795l6.298 4.577c.268.182.328.576.149.848-.18.213-.507.303-.836.122z" fill="#FFF" fill-rule="evenodd"/></svg>