<?xml version="1.0" encoding="UTF-8"?>
<svg width="101px" height="202px" viewBox="0 0 101 202" version="1.1" xmlns="http://www.w3.org/2000/svg" xmlns:xlink="http://www.w3.org/1999/xlink">
    <!-- Generator: Sketch 49.1 (51147) - http://www.bohemiancoding.com/sketch -->
    <title>Artboard</title>
    <desc>Created with Sketch.</desc>
    <defs>
        <path d="M0.133202899,5.93495238 C0.133202899,9.25164182 1.98089648,11.8682319 5.79819462,11.8682319 C8.69206418,11.8682319 10.5629689,10.1246749 10.8797702,8.1874824 L8.20567495,8.1874824 C7.88887371,8.98607246 7.30545756,9.66400621 5.79819462,9.66400621 C3.5866501,9.66400621 2.88090476,8.35644306 2.75857557,6.7347971 L10.8548861,6.7347971 C10.9772153,6.0083499 10.9772153,5.47574741 10.9772153,5.08805797 C10.9772153,2.20610766 8.66697101,0.00167287785 5.72605176,0.00167287785 C2.15173913,0.00167287785 0.133202899,2.54507453 0.133202899,5.93495238 Z M5.65244513,1.98737888 C7.25673499,1.98737888 8.400147,3.05258385 8.400147,4.7727205 L2.75857557,4.7727205 C2.75857557,2.93234576 4.02306211,1.98737888 5.65244513,1.98737888 Z" id="path-1"></path>
        <path d="M0.0589689441,0.0631511387 L0.0589689441,17.0146315 L2.70943478,17.0146315 L2.70943478,11.1781698 C2.70943478,9.24097723 3.58476812,7.76319876 5.4324617,7.76319876 C7.32845963,7.76319876 7.88824638,9.24097723 7.88824638,11.1781698 L7.88824638,17.0146315 L10.5389213,17.0146315 L10.5389213,10.3063913 C10.5389213,8.75667909 10.3680787,7.81317598 9.80975569,6.96356315 C9.17615321,6.02006004 8.03420497,5.43852588 6.40482195,5.43852588 C4.72671636,5.43852588 3.41518012,6.09178468 2.70943478,7.30253002 L2.70943478,0.0631511387 L0.0589689441,0.0631511387 Z" id="path-3"></path>
        <polygon id="path-5" points="0.0892898551 0.0631511387 2.74017391 0.0631511387 2.74017391 17.0144224 0.0892898551 17.0144224"></polygon>
        <path d="M0.00104554865,5.93474327 C0.00104554865,9.13244928 2.35854865,11.8678137 5.81053209,11.8678137 C7.12457764,11.8678137 8.60695652,11.1898799 9.31270186,10.052323 L9.31270186,11.5773602 L11.9631677,11.5773602 L11.9631677,0.291917184 L9.31270186,0.291917184 L9.31270186,1.81695445 C8.60695652,0.679606625 7.12457764,0.00167287785 5.81053209,0.00167287785 C2.35854865,0.00167287785 0.00104554865,2.73829193 0.00104554865,5.93474327 Z M2.6517205,5.93474327 C2.6517205,3.99755072 3.96283851,2.3510207 5.95774534,2.3510207 C7.99991097,2.3510207 9.31270186,3.99755072 9.31270186,5.93474327 C9.31270186,7.87193582 7.99991097,9.5197205 5.95774534,9.5197205 C3.96283851,9.5197205 2.6517205,7.87193582 2.6517205,5.93474327 Z" id="path-7"></path>
        <path d="M0.0370124224,0.062942029 L0.0370124224,17.0142133 L2.68768737,17.0142133 L2.68768737,15.489176 C3.39343271,16.6267329 4.87539337,17.3046667 6.18985714,17.3046667 C9.6401677,17.3046667 11.9991346,14.5693023 11.9991346,11.3715963 C11.9991346,8.17514493 9.6401677,5.43852588 6.18985714,5.43852588 C4.87539337,5.43852588 3.39343271,6.11645963 2.68768737,7.25380745 L2.68768737,0.062942029 L0.0370124224,0.062942029 Z M2.68768737,11.3715963 C2.68768737,9.43440373 4.00026915,7.78787371 6.04222567,7.78787371 C8.03713251,7.78787371 9.34866874,9.43440373 9.34866874,11.3715963 C9.34866874,13.3087888 8.03713251,14.9565735 6.04222567,14.9565735 C4.00026915,14.9565735 2.68768737,13.3087888 2.68768737,11.3715963 Z" id="path-9"></path>
        <path d="M0.0524865424,0.197190476 L0.0524865424,17.5687723 L7.37069979,17.5687723 C12.1979979,17.5687723 13.1329275,14.4668385 13.1329275,12.7609213 C13.1329275,10.1234203 11.1089545,8.72865839 10.0186563,8.72865839 C11.4201097,8.41750311 13.1329275,7.02148654 13.1329275,4.85030021 C13.1329275,2.9892236 12.1979979,0.197190476 7.52627743,0.197190476 L0.0524865424,0.197190476 Z M4.10064182,3.14417391 L6.59134783,3.14417391 C8.61678468,3.14417391 9.0835176,4.38524017 9.0835176,5.16040994 C9.0835176,6.09032091 8.61678468,7.17622774 6.59134783,7.17622774 L4.10064182,7.17622774 L4.10064182,3.14417391 Z M4.10064182,10.1234203 L6.59134783,10.1234203 C8.46120704,10.1234203 8.92793996,11.519646 8.92793996,12.2958613 C9.0835176,13.3819772 8.61678468,14.4668385 6.59134783,14.4668385 L4.10064182,14.4668385 L4.10064182,10.1234203 Z" id="path-11"></path>
        <path d="M0.149722567,0.189035197 L0.149722567,7.32323188 C0.149722567,9.03040373 0.305300207,10.2718882 1.08465217,11.2017992 C1.70717184,11.9765507 2.95158385,12.5976066 4.51049689,12.5976066 C6.37889234,12.5976066 7.78034576,11.8213913 8.40286542,10.5817888 L8.40286542,12.287706 L12.2966977,12.287706 L12.2966977,0.343985507 L8.40286542,0.343985507 L8.40286542,6.2383706 C8.40286542,8.0994472 7.62497723,9.34072257 6.06773706,9.34072257 C4.51049689,9.34072257 3.88672257,8.0994472 3.88672257,6.39332091 L3.88672257,0.189035197 L0.149722567,0.189035197 Z" id="path-13"></path>
        <polygon id="path-15" points="0.41194617 0.188826087 0.41194617 3.44612836 5.39503106 3.44612836 0.10079089 12.1327557 11.1574679 12.1327557 11.1574679 8.87398965 6.01880538 8.87398965 11.3130455 0.188826087"></polygon>
        <polygon id="path-17" points="0.430766046 0.188826087 0.430766046 3.44612836 5.41385093 3.44612836 0.118146998 12.1327557 11.1746149 12.1327557 11.1746149 8.87398965 6.03595238 8.87398965 11.3316563 0.188826087"></polygon>
        <path d="M0.0524865424,0.110200828 L0.0524865424,17.4822008 L7.37069979,17.4822008 C12.1979979,17.4822008 13.1329275,14.380058 13.1329275,12.6753954 C13.1329275,10.0366398 11.1089545,8.64187785 10.0186563,8.64187785 C11.4201097,8.33072257 13.1329275,6.93449689 13.1329275,4.76372878 C13.1329275,2.90265217 12.1979979,0.110200828 7.52627743,0.110200828 L0.0524865424,0.110200828 Z M4.10064182,3.05613872 L6.59134783,3.05613872 C8.61678468,3.05613872 9.0835176,4.29866874 9.0835176,5.0736294 C9.0835176,6.00479503 8.61678468,7.08965631 6.59134783,7.08965631 L4.10064182,7.08965631 L4.10064182,3.05613872 Z M4.10064182,10.0366398 L6.59134783,10.0366398 C8.46120704,10.0366398 8.92793996,11.4328654 8.92793996,12.2090807 C9.0835176,13.2937329 8.61678468,14.380058 6.59134783,14.380058 L4.10064182,14.380058 L4.10064182,10.0366398 Z" id="path-19"></path>
        <path d="M3.98855901,2.17181366 L3.98855901,0.31094617 L0.0961904762,0.31094617 L0.0961904762,12.2546667 L3.98855901,12.2546667 L3.98855901,7.60134783 C3.98855901,4.65415528 5.3916853,3.56950311 7.41565839,3.56950311 C7.8823913,3.56950311 8.19375569,3.56950311 8.81732091,3.72298965 L8.81732091,0.31094617 C8.50616563,0.155786749 8.19375569,0.155786749 7.72681366,0.155786749 C7.61703106,0.145958592 7.50787578,0.141358178 7.39976605,0.141358178 C5.81889648,0.141149068 4.42664389,1.15658592 3.98855901,2.17181366 Z" id="path-21"></path>
        <path d="M0.132993789,6.36049068 C0.132993789,9.77253416 2.62369979,12.7197267 6.82889648,12.7197267 C11.0324203,12.7197267 13.5245901,9.77253416 13.5245901,6.36049068 C13.5245901,2.79349689 11.0324203,0.00125465839 6.82889648,0.00125465839 C2.62369979,0.00125465839 0.132993789,2.94698344 0.132993789,6.36049068 Z M4.02557143,6.20554037 C4.02557143,4.49815942 5.11586957,3.10339752 6.82889648,3.10339752 C8.54025052,3.10339752 9.7863354,4.49815942 9.7863354,6.20554037 C9.7863354,7.91145756 8.54025052,9.30747412 6.82889648,9.30747412 C5.11586957,9.30747412 4.02557143,7.91145756 4.02557143,6.20554037 Z" id="path-23"></path>
        <path d="M2.054294,0.0903354037 L2.054294,3.65732919 L0.18610766,3.65732919 L0.18610766,6.44810766 L2.054294,6.44810766 L2.054294,11.5675321 C2.054294,15.6008406 4.54667288,15.7547453 6.25949068,15.7547453 C7.34853416,15.7547453 8.28346377,15.6008406 8.75019669,15.6008406 L8.75019669,12.6538571 L7.34853416,12.6538571 C6.57043685,12.8088075 5.791294,12.497234 5.791294,10.7927805 L5.791294,6.44810766 L8.59608282,6.44810766 L8.59608282,3.65732919 L5.791294,3.65732919 L5.791294,0.0903354037 L2.054294,0.0903354037 Z" id="path-25"></path>
        <path d="M0.0568778468,0.111455487 L0.0568778468,17.4817826 L3.79345963,17.4817826 L3.79345963,11.4324472 C3.79345963,9.57262526 4.57281159,8.33030435 6.13026087,8.33030435 C7.68729193,8.33030435 8.3100207,9.57262526 8.3100207,11.2774969 L8.3100207,17.4817826 L12.0480663,17.4817826 L12.0480663,10.347795 C12.0480663,8.64145963 11.8910248,7.39913872 11.1131366,6.46922774 C10.3337847,5.69426708 9.2447412,5.22941615 7.68729193,5.22941615 C5.81764182,5.22941615 4.41723395,6.00563147 3.79345963,7.24565217 L3.79345963,0.111455487 L0.0568778468,0.111455487 Z" id="path-27"></path>
        <path d="M0.0087826087,6.3609089 C0.0087826087,10.0830621 2.34265631,12.7186812 6.54910766,12.7186812 C9.9732795,12.7186812 12.154294,10.8592774 12.4654493,8.68683644 L8.72865839,8.68683644 C8.41603934,9.46305176 7.79372878,10.0830621 6.54910766,10.0830621 C4.52492547,10.0830621 3.89968737,8.84178675 3.89968737,7.44702484 L12.6210269,7.44702484 C12.7766046,6.67101863 12.7766046,6.20449482 12.7766046,5.74110766 C12.4654493,2.48234161 10.13053,0.00167287785 6.39206625,0.00167287785 C2.18854244,0.00167287785 0.0087826087,2.79391511 0.0087826087,6.3609089 Z M6.23648861,2.48234161 C7.63815114,2.48234161 8.72865839,3.41350725 8.72865839,4.96468323 L3.7455735,4.96468323 C3.7455735,3.41350725 4.83482609,2.48234161 6.23648861,2.48234161 Z" id="path-29"></path>
        <path d="M4.0034058,2.17181366 L4.0034058,0.31094617 L0.109573499,0.31094617 L0.109573499,12.2546667 L4.0034058,12.2546667 L4.0034058,7.60134783 C4.0034058,4.65415528 5.40506832,3.56950311 7.42904141,3.56950311 C7.8972381,3.56950311 8.20713872,3.56950311 8.83070393,3.72298965 L8.83070393,0.31094617 C8.51975776,0.155786749 8.20713872,0.155786749 7.7404058,0.155786749 C7.63062319,0.145958592 7.52146791,0.141358178 7.41335818,0.141358178 C5.83248861,0.141149068 4.44044513,1.15658592 4.0034058,2.17181366 Z" id="path-31"></path>
        <path d="M0.196144928,3.77819462 C0.196144928,6.10537681 1.90770807,6.7239234 3.93189027,7.34518841 C6.2684824,8.12140373 7.2032029,8.27509938 7.2032029,9.20626501 C7.2032029,9.98122567 6.57963768,10.2925901 5.64596273,10.2925901 C4.55545549,10.2925901 3.77756729,9.82606625 3.77756729,8.58646377 L0.0378488613,8.58646377 C0.0378488613,11.3774513 2.22032712,12.9284182 5.64596273,12.9284182 C8.60361077,12.9284182 11.0943168,11.8420932 11.0943168,9.05006004 C10.7846253,6.56897308 9.07034369,5.94917184 6.89079296,5.3293706 C4.86661077,4.70810559 3.77756729,4.55315528 3.77756729,3.62324431 C3.77756729,2.84702899 4.39841408,2.53712836 5.17797516,2.53712836 C6.2684824,2.53712836 6.73500621,3.15692961 6.73500621,4.08809524 L10.6275839,4.08809524 C10.6275839,1.7621677 8.91622981,0.0547867495 5.48892133,0.0547867495 C2.22032712,0.0547867495 0.196144928,1.29606211 0.196144928,3.77819462 Z" id="path-33"></path>
        <path d="M0.0518592133,0.171679089 L0.0518592133,5.44479917 L71.3720787,5.44479917 C72.7737412,5.44479917 74.0185714,6.68440166 74.0185714,8.0820911 C74.0185714,9.476853 72.7737412,10.7177101 71.3720787,10.7177101 L0.0518592133,10.7177101 L0.0518592133,15.9925031 L71.3720787,15.9925031 C75.8869669,15.9925031 79.3140663,12.4253002 79.3140663,8.0820911 C79.3140663,3.73867288 75.732853,0.171679089 71.3720787,0.171679089 L0.0518592133,0.171679089 Z" id="path-35"></path>
        <path d="M0.0518592133,0.171888199 L0.0518592133,5.44647205 L71.3720787,5.44647205 C72.7737412,5.44647205 74.0185714,6.6875383 74.0185714,8.08376398 C74.0185714,9.47978054 72.7737412,10.7195921 71.3720787,10.7195921 L0.0518592133,10.7195921 L0.0518592133,15.9939669 L71.3720787,15.9939669 C75.732853,15.9939669 79.3140663,12.4271822 79.3140663,8.08376398 C79.3140663,3.74034576 75.8869669,0.171888199 71.3720787,0.171888199 L0.0518592133,0.171888199 Z" id="path-37"></path>
        <path d="M0.052068323,0.0811345756 L0.052068323,2.71717184 L0.052068323,5.35571843 L71.3722878,5.35571843 C78.6919648,5.35571843 84.6070518,11.2486398 84.6070518,18.5392505 C84.6070518,25.8296522 78.6919648,31.7225735 71.3722878,31.7225735 L0.052068323,31.7225735 L0.052068323,34.3600745 L0.052068323,36.9959027 L71.3722878,36.9959027 C81.4940352,36.9959027 89.9038012,28.7741263 89.9038012,18.5392505 C89.9038012,12.3347557 86.7893209,6.75027122 81.960559,3.49317805 C79.0016563,1.3236646 75.4204431,0.0811345756 71.3722878,0.0811345756 L0.052068323,0.0811345756 Z" id="path-39"></path>
        <path d="M0.0518592133,0.0798799172 L0.0518592133,2.71591718 L0.0518592133,5.353 L71.3720787,5.353 C78.6919648,5.353 84.6083064,11.2461304 84.6083064,18.5379959 C84.6083064,25.8258882 78.6919648,31.7200642 71.3720787,31.7200642 L0.0518592133,31.7200642 L0.0518592133,34.3575652 L0.0518592133,36.9931843 L71.3720787,36.9931843 C75.265911,36.9931843 78.8473333,35.7535818 81.8047723,33.7360911 C86.6337433,30.4789979 89.7469689,24.8959772 89.7469689,18.5379959 C89.7469689,8.45535197 81.4938261,0.0798799172 71.216501,0.0798799172 L0.0518592133,0.0798799172 Z" id="path-41"></path>
        <path d="M0.0531138716,0.0890807453 L0.0531138716,5.36345549 L71.3718696,5.36345549 C84.4523106,5.36345549 95.1974141,16.0648551 95.1974141,29.0932277 C95.1974141,36.2276335 92.0831429,42.4331739 87.100058,46.7751284 C85.6983954,48.0161946 83.9868323,49.1010559 82.2727598,50.0324306 C83.9868323,50.6522319 85.6983954,51.7383478 87.100058,53.1345735 C92.0831429,57.4777826 95.1974141,63.835764 95.1974141,70.816265 C95.1974141,83.8448468 84.6078882,94.547501 71.3718696,94.547501 L0.0531138716,94.547501 L0.0531138716,99.8206211 L71.3718696,99.8206211 C76.3547453,99.8206211 81.1822526,98.5808095 85.2318716,96.2536273 C86.9432257,95.3222526 88.5017205,94.391087 89.903383,93.1514845 C91.3035818,91.9102091 92.7069172,90.6703975 93.7959607,89.2729172 C94.4182712,88.4981656 94.8850041,87.8766915 95.5087785,87.1021491 C97.5327516,84.1547474 98.9344141,80.8976542 99.7139752,77.4856108 C100.023667,76.3994948 100.180708,75.3146335 100.336286,74.2285176 C100.491654,73.1424017 100.491654,72.0573313 100.491654,70.9726791 C100.491654,69.4200393 100.336286,68.0240228 100.180708,66.6292609 C99.7139752,63.6808137 98.9344141,61.0449855 97.689793,58.5626439 C97.0674824,57.3213685 96.4424534,56.081766 95.6643561,54.995441 C94.4182712,53.2895238 93.0166087,51.5833975 91.4593685,50.187381 C92.3942981,49.4109565 93.1736501,48.4827184 93.9515383,47.5515528 C98.1565259,42.5883333 100.648696,36.0726832 100.648696,29.0932277 C100.648696,13.1176625 87.5682547,0.0890807453 71.5274472,0.0890807453 L0.0531138716,0.0890807453 Z" id="path-43"></path>
        <polygon id="path-45" points="0.0512318841 0.0257204969 15.7794203 0.0257204969 15.7794203 1.40939959 0.0512318841 1.40939959"></polygon>
    </defs>
    <g id="Artboard" stroke="none" stroke-width="1" fill="none" fill-rule="evenodd">
        <g id="Page-1">
            <polygon id="Fill-1" fill="#FEFEFE" points="0.0346076605 184.251163 0.0346076605 186.745842 4.26636128 186.745842 4.26636128 201.202225 7.0797236 201.202225 7.0797236 186.745842 11.3353157 186.745842 11.3353157 184.251163"></polygon>
            <path d="M13.4233391,194.39769 L19.0647014,194.39769 C19.0647014,192.677554 17.9214986,191.612349 16.3169996,191.612349 C14.6874075,191.612349 13.4233391,192.557316 13.4233391,194.39769 Z M13.4233391,196.359767 C13.5454592,197.981413 14.2512046,199.288976 16.4627491,199.288976 C17.970012,199.288976 18.5536373,198.610833 18.8702294,197.812452 L21.5443246,197.812452 C21.2277325,199.749645 19.3566186,201.493202 16.4627491,201.493202 C12.6454509,201.493202 10.7977573,198.876612 10.7977573,195.559922 C10.7977573,192.170044 12.8162936,189.626852 16.3906062,189.626852 C19.3315255,189.626852 21.6417698,191.831077 21.6417698,194.713028 C21.6417698,195.100508 21.6417698,195.633111 21.5194406,196.359767 L13.4233391,196.359767 Z" id="Fill-2" fill="#FEFEFE"></path>
            <g id="Group-6" transform="translate(10.664596, 189.624886)">
                <mask id="mask-2" fill="white">
                    <use xlink:href="#path-1"></use>
                </mask>
                <g id="Clip-5"></g>
                <polygon id="Fill-4" fill="#FEFEFE" mask="url(#mask-2)" points="-3.89090476 15.8923395 15.001323 15.8923395 15.001323 -4.02222567 -3.89090476 -4.02222567"></polygon>
            </g>
            <g id="Group-11" transform="translate(23.629400, 184.188033)" fill="#FEFEFE">
                <path d="M8.440547,9.8461617 C8.29458841,8.6105323 7.56521366,7.78852195 5.76624265,7.78852195 C3.72282236,7.78852195 2.72683271,9.45847226 2.72683271,11.3722445 C2.72683271,13.3094371 3.6506795,14.9559671 5.93583064,14.9559671 C7.49160704,14.9559671 8.12374576,14.2778242 8.46564017,13.1406855 L11.1146422,13.1406855 C10.7507913,15.4885696 9.02396315,17.305524 5.74282236,17.305524 C2.04618054,17.305524 0.0763668737,14.4467849 0.0763668737,11.3722445 C0.0763668737,8.31986977 2.04618054,5.43771035 5.71772919,5.43771035 C9.41290725,5.43771035 10.9201702,7.66682008 11.0895491,9.8461617 L8.440547,9.8461617 Z" id="Fill-7"></path>
                <path d="M13.860253,0.0631302277 L16.5107188,0.0631302277 L16.5107188,7.30250911 C17.2164642,6.09176377 18.5277913,5.43871408 20.206106,5.43871408 C21.835489,5.43871408 22.9774373,6.01983002 23.6108306,6.96354224 C24.1693627,7.81315507 24.3402054,8.75665818 24.3402054,10.3063704 L24.3402054,17.0144014 L21.6895304,17.0144014 L21.6895304,11.1781489 C21.6895304,9.24116542 21.1297437,7.76317785 19.2335366,7.76317785 C17.3860522,7.76317785 16.5107188,9.24116542 16.5107188,11.1781489 L16.5107188,17.0144014 L13.860253,17.0144014 L13.860253,0.0631302277 Z" id="Fill-9"></path>
            </g>
            <g id="Group-14" transform="translate(37.430642, 184.188033)">
                <mask id="mask-4" fill="white">
                    <use xlink:href="#path-3"></use>
                </mask>
                <g id="Clip-13"></g>
                <polygon id="Fill-12" fill="#FEFEFE" mask="url(#mask-4)" points="-3.96513872 21.0387391 14.563029 21.0387391 14.563029 -3.96095652 -3.96513872 -3.96095652"></polygon>
            </g>
            <polygon id="Fill-15" fill="#FEFEFE" points="51.321383 201.202246 53.972058 201.202246 53.972058 184.251184 51.321383 184.251184"></polygon>
            <g id="Group-19" transform="translate(51.231884, 184.188033)">
                <mask id="mask-6" fill="white">
                    <use xlink:href="#path-5"></use>
                </mask>
                <g id="Clip-18"></g>
                <polygon id="Fill-17" fill="#FEFEFE" mask="url(#mask-6)" points="-3.9346087 21.03853 6.76428157 21.03853 6.76428157 -3.96116563 -3.9346087 -3.96116563"></polygon>
            </g>
            <path d="M65.9814598,195.559629 C65.9814598,193.622437 64.6686689,191.975907 62.6265033,191.975907 C60.6315965,191.975907 59.3204785,193.622437 59.3204785,195.559629 C59.3204785,197.496822 60.6315965,199.144816 62.6265033,199.144816 C64.6686689,199.144816 65.9814598,197.496822 65.9814598,195.559629 Z M68.6319257,189.917012 L68.6319257,201.202037 L65.9814598,201.202037 L65.9814598,199.677209 C65.2757145,200.814766 63.7933356,201.4927 62.4792901,201.4927 C59.0270975,201.4927 56.6698035,198.757335 56.6698035,195.559629 C56.6698035,192.363387 59.0270975,189.626559 62.4792901,189.626559 C63.7933356,189.626559 65.2757145,190.304493 65.9814598,191.441841 L65.9814598,189.917012 L68.6319257,189.917012 Z" id="Fill-20" fill="#FEFEFE"></path>
            <g id="Group-24" transform="translate(56.668737, 189.624886)">
                <mask id="mask-8" fill="white">
                    <use xlink:href="#path-7"></use>
                </mask>
                <g id="Clip-23"></g>
                <polygon id="Fill-22" fill="#FEFEFE" mask="url(#mask-8)" points="-4.02306211 15.8919213 15.9872754 15.8919213 15.9872754 -4.02264389 -4.02306211 -4.02264389"></polygon>
            </g>
            <path d="M81.491505,195.559629 C81.491505,193.622437 80.1801778,191.975907 78.1850619,191.975907 C76.1431054,191.975907 74.8305236,193.622437 74.8305236,195.559629 C74.8305236,197.496822 76.1431054,199.144816 78.1850619,199.144816 C80.1801778,199.144816 81.491505,197.496822 81.491505,195.559629 Z M74.8305236,201.202037 L72.1798487,201.202037 L72.1798487,184.250975 L74.8305236,184.250975 L74.8305236,191.441841 C75.5362689,190.304493 77.0182296,189.626559 78.3326934,189.626559 C81.783213,189.626559 84.1419708,192.363387 84.1419708,195.559629 C84.1419708,198.757335 81.783213,201.4927 78.3326934,201.4927 C77.0182296,201.4927 75.5362689,200.814766 74.8305236,199.677209 L74.8305236,201.202037 Z" id="Fill-25" fill="#FEFEFE"></path>
            <g id="Group-29" transform="translate(72.142857, 184.188033)">
                <mask id="mask-10" fill="white">
                    <use xlink:href="#path-9"></use>
                </mask>
                <g id="Clip-28"></g>
                <polygon id="Fill-27" fill="#FEFEFE" mask="url(#mask-10)" points="-3.98709524 21.3287743 16.0234513 21.3287743 16.0234513 -3.96116563 -3.98709524 -3.96116563"></polygon>
            </g>
            <path d="M4.1006,136.13102 L4.1006,131.787602 L6.591306,131.787602 C8.46116522,131.787602 8.92789814,133.183828 8.92789814,133.960043 C9.08347578,135.046368 8.61674286,136.13102 6.591306,136.13102 L4.1006,136.13102 Z M4.1006,124.808565 L6.591306,124.808565 C8.61674286,124.808565 9.08347578,126.049631 9.08347578,126.824592 C9.08347578,127.754294 8.61674286,128.840619 6.591306,128.840619 L4.1006,128.840619 L4.1006,124.808565 Z M13.1328857,134.425103 C13.1328857,131.787602 11.1089126,130.393049 10.0184054,130.393049 C11.4200679,130.081685 13.1328857,128.685668 13.1328857,126.514691 C13.1328857,124.653405 12.1981652,121.861372 7.52623561,121.861372 L0.0524447205,121.861372 L0.0524447205,139.233163 L7.37065797,139.233163 C12.1981652,139.233163 13.1328857,136.13102 13.1328857,134.425103 Z" id="Fill-30" fill="#FEFEFE"></path>
            <g id="Group-34" transform="translate(0.000000, 121.664224)">
                <mask id="mask-12" fill="white">
                    <use xlink:href="#path-11"></use>
                </mask>
                <g id="Clip-33"></g>
                <polygon id="Fill-32" fill="#FEFEFE" mask="url(#mask-12)" points="-3.97162112 21.5932981 17.1572443 21.5932981 17.1572443 -3.82691718 -3.97162112 -3.82691718"></polygon>
            </g>
            <path d="M27.7708387,139.388762 L27.7708387,127.445041 L23.8770064,127.445041 L23.8770064,133.339426 C23.8770064,135.200503 23.0991182,136.441569 21.5416689,136.441569 C19.9846379,136.441569 19.3608636,135.200503 19.3608636,133.494586 L19.3608636,127.2903 L15.6238636,127.2903 L15.6238636,134.424288 C15.6238636,136.131669 15.7794412,137.372735 16.5587932,138.302855 C17.1811037,139.077606 18.425934,139.698662 19.9846379,139.698662 C21.8530333,139.698662 23.2546959,138.922656 23.8770064,137.682845 L23.8770064,139.388762 L27.7708387,139.388762 Z" id="Fill-35" fill="#FEFEFE"></path>
            <g id="Group-39" transform="translate(15.474120, 127.101077)">
                <mask id="mask-14" fill="white">
                    <use xlink:href="#path-13"></use>
                </mask>
                <g id="Clip-38"></g>
                <polygon id="Fill-37" fill="#FEFEFE" mask="url(#mask-14)" points="-3.87438509 16.6219234 16.3210145 16.6219234 16.3210145 -3.83528157 -3.87438509 -3.83528157"></polygon>
            </g>
            <polygon id="Fill-40" fill="#FEFEFE" points="30.1056534 127.290007 30.1056534 130.5471 35.0887383 130.5471 29.7944981 139.233728 40.850966 139.233728 40.850966 135.975171 35.7123035 135.975171 41.0065437 127.290007"></polygon>
            <g id="Group-44" transform="translate(29.693582, 127.101077)">
                <mask id="mask-16" fill="white">
                    <use xlink:href="#path-15"></use>
                </mask>
                <g id="Clip-43"></g>
                <polygon id="Fill-42" fill="#FEFEFE" mask="url(#mask-16)" points="-3.92331677 16.1568634 15.3369441 16.1568634 15.3369441 -3.83507246 -3.92331677 -3.83507246"></polygon>
            </g>
            <polygon id="Fill-45" fill="#FEFEFE" points="42.2527122 127.290007 42.2527122 130.5471 47.2357971 130.5471 41.9400932 139.233728 52.9965611 139.233728 52.9965611 135.975171 47.8581077 135.975171 53.1536025 127.290007"></polygon>
            <g id="Group-49" transform="translate(41.821946, 127.101077)">
                <mask id="mask-18" fill="white">
                    <use xlink:href="#path-17"></use>
                </mask>
                <g id="Clip-48"></g>
                <polygon id="Fill-47" fill="#FEFEFE" mask="url(#mask-18)" points="-3.90596066 16.1568634 15.3559731 16.1568634 15.3559731 -3.83507246 -3.90596066 -3.83507246"></polygon>
            </g>
            <path d="M4.1006,158.000741 L4.1006,153.657322 L6.591306,153.657322 C8.46116522,153.657322 8.92789814,155.053548 8.92789814,155.829763 C9.08347578,156.914625 8.61674286,158.000741 6.591306,158.000741 L4.1006,158.000741 Z M4.1006,146.67703 L6.591306,146.67703 C8.61674286,146.67703 9.08347578,147.919351 9.08347578,148.694312 C9.08347578,149.625478 8.61674286,150.710339 6.591306,150.710339 L4.1006,150.710339 L4.1006,146.67703 Z M13.1328857,156.296078 C13.1328857,153.657322 11.1089126,152.26277 10.0184054,152.26277 C11.4200679,151.951405 13.1328857,150.555389 13.1328857,148.384411 C13.1328857,146.523335 12.1981652,143.731093 7.52623561,143.731093 L0.0524447205,143.731093 L0.0524447205,161.102883 L7.37065797,161.102883 C12.1981652,161.102883 13.1328857,158.000741 13.1328857,156.296078 Z" id="Fill-50" fill="#FEFEFE"></path>
            <g id="Group-54" transform="translate(0.000000, 143.620745)">
                <mask id="mask-20" fill="white">
                    <use xlink:href="#path-19"></use>
                </mask>
                <g id="Clip-53"></g>
                <polygon id="Fill-52" fill="#FEFEFE" mask="url(#mask-20)" points="-3.97162112 21.5065176 17.1572443 21.5065176 17.1572443 -3.91369772 -3.97162112 -3.91369772"></polygon>
            </g>
            <path d="M19.6718097,151.020281 L19.6718097,149.159414 L15.7794412,149.159414 L15.7794412,161.103134 L19.6718097,161.103134 L19.6718097,156.449816 C19.6718097,153.502623 21.074936,152.417971 23.0989091,152.417971 C23.565642,152.417971 23.8767973,152.417971 24.5005716,152.571457 L24.5005716,149.159414 C24.1894164,149.004254 23.8767973,149.004254 23.4100644,149.004254 C21.6972466,148.850768 20.1400064,149.935629 19.6718097,151.020281" id="Fill-55" fill="#FEFEFE"></path>
            <g id="Group-59" transform="translate(15.683230, 148.848489)">
                <mask id="mask-22" fill="white">
                    <use xlink:href="#path-21"></use>
                </mask>
                <g id="Clip-58"></g>
                <polygon id="Fill-57" fill="#FEFEFE" mask="url(#mask-22)" points="-3.92812629 16.2787743 12.8414286 16.2787743 12.8414286 -3.88295859 -3.92812629 -3.88295859"></polygon>
            </g>
            <path d="M32.1311112,158.156151 C30.4182934,158.156151 29.3277861,156.759925 29.3277861,155.054008 C29.3277861,153.346627 30.4182934,151.951865 32.1311112,151.951865 C33.8424652,151.951865 35.0887592,153.346627 35.0887592,155.054008 C35.0887592,156.759925 33.8424652,158.156151 32.1311112,158.156151 M32.1311112,148.849722 C27.9261236,148.849722 25.4352085,151.795451 25.4352085,155.208958 C25.4352085,158.621211 27.9261236,161.568194 32.1311112,161.568194 C36.3348441,161.568194 38.8270139,158.621211 38.8270139,155.208958 C38.8270139,151.641965 36.3348441,148.849722 32.1311112,148.849722" id="Fill-60" fill="#FEFEFE"></path>
            <g id="Group-64" transform="translate(25.302277, 148.848489)">
                <mask id="mask-24" fill="white">
                    <use xlink:href="#path-23"></use>
                </mask>
                <g id="Clip-63"></g>
                <polygon id="Fill-62" fill="#FEFEFE" mask="url(#mask-24)" points="-3.89111387 16.7438344 17.5489068 16.7438344 17.5489068 -4.02327122 -3.89111387 -4.02327122"></polygon>
            </g>
            <path d="M45.5221847,156.295597 L45.5221847,151.950924 L48.3269735,151.950924 L48.3269735,149.159937 L45.5221847,149.159937 L45.5221847,145.592943 L41.7851847,145.592943 L41.7851847,149.159937 L39.9167892,149.159937 L39.9167892,151.950924 L41.7851847,151.950924 L41.7851847,157.070349 C41.7851847,161.103657 44.2773545,161.257562 45.9903814,161.257562 C47.0794248,161.257562 48.0143545,161.103657 48.4810874,161.103657 L48.4810874,158.156465 L47.0794248,158.156465 C46.3015366,158.311624 45.5221847,158.000051 45.5221847,156.295597" id="Fill-65" fill="#FEFEFE"></path>
            <g id="Group-69" transform="translate(39.730849, 145.502733)">
                <mask id="mask-26" fill="white">
                    <use xlink:href="#path-25"></use>
                </mask>
                <g id="Clip-68"></g>
                <polygon id="Fill-67" fill="#FEFEFE" mask="url(#mask-26)" points="-3.83820911 19.778853 12.7745135 19.778853 12.7745135 -3.93398137 -3.83820911 -3.93398137"></polygon>
            </g>
            <path d="M58.2919723,148.850161 C56.4223222,148.850161 55.0217052,149.626377 54.39814,150.866398 L54.39814,143.731992 L50.6613491,143.731992 L50.6613491,161.102528 L54.39814,161.102528 L54.39814,155.053193 C54.39814,153.19358 55.1772828,151.95105 56.7347321,151.95105 C58.2919723,151.95105 58.9144919,153.19358 58.9144919,154.898242 L58.9144919,161.102528 L62.6527466,161.102528 L62.6527466,153.96854 C62.6527466,152.262205 62.4957052,151.019884 61.717817,150.089973 C60.9382559,149.315222 59.8492124,148.850161 58.2919723,148.850161" id="Fill-70" fill="#FEFEFE"></path>
            <g id="Group-74" transform="translate(50.604555, 143.620745)">
                <mask id="mask-28" fill="white">
                    <use xlink:href="#path-27"></use>
                </mask>
                <g id="Clip-73"></g>
                <polygon id="Fill-72" fill="#FEFEFE" mask="url(#mask-28)" points="-3.96743892 21.5060994 16.0721739 21.5060994 16.0721739 -3.91286128 -3.96743892 -3.91286128"></polygon>
            </g>
            <path d="M68.5695901,153.813235 C68.5695901,152.262059 69.6588427,151.330893 71.0605052,151.330893 C72.4621677,151.330893 73.5526749,152.262059 73.5526749,153.813235 L68.5695901,153.813235 Z M71.2160828,148.850224 C67.012559,148.850224 64.8327992,151.642257 64.8327992,155.20946 C64.8327992,158.931613 67.1666729,161.567233 71.3729151,161.567233 C74.7972961,161.567233 76.9783106,159.70762 77.2894658,157.535388 L73.5526749,157.535388 C73.2400559,158.311603 72.6177453,158.931613 71.3729151,158.931613 C69.3491511,158.931613 68.7237039,157.690338 68.7237039,156.295576 L77.4450435,156.295576 C77.6006211,155.519361 77.6006211,155.053046 77.6006211,154.58945 C77.2894658,151.330893 74.9543375,148.850224 71.2160828,148.850224 Z" id="Fill-75" fill="#FEFEFE"></path>
            <g id="Group-79" transform="translate(64.824017, 148.848489)">
                <mask id="mask-30" fill="white">
                    <use xlink:href="#path-29"></use>
                </mask>
                <g id="Clip-78"></g>
                <polygon id="Fill-77" fill="#FEFEFE" mask="url(#mask-30)" points="-4.01532505 16.743207 16.8009213 16.743207 16.8009213 -4.02264389 -4.01532505 -4.02264389"></polygon>
            </g>
            <path d="M83.6742969,151.020281 L83.6742969,149.159414 L79.7804646,149.159414 L79.7804646,161.103134 L83.6742969,161.103134 L83.6742969,156.449816 C83.6742969,153.502623 85.0759594,152.417971 87.0999325,152.417971 C87.5681292,152.417971 87.8780298,152.417971 88.501595,152.571457 L88.501595,149.159414 C88.1906489,149.004254 87.8780298,149.004254 87.4110878,149.004254 C85.6984791,148.850768 84.1410298,149.935629 83.6742969,151.020281" id="Fill-80" fill="#FEFEFE"></path>
            <g id="Group-84" transform="translate(79.670807, 148.848489)">
                <mask id="mask-32" fill="white">
                    <use xlink:href="#path-31"></use>
                </mask>
                <g id="Clip-83"></g>
                <polygon id="Fill-82" fill="#FEFEFE" mask="url(#mask-32)" points="-3.91453416 16.2787743 12.8550207 16.2787743 12.8550207 -3.88295859 -3.91453416 -3.88295859"></polygon>
            </g>
            <path d="M96.5988675,153.968645 C94.5746853,153.34738 93.4856418,153.19243 93.4856418,152.262728 C93.4856418,151.486303 94.1064886,151.176403 94.8860497,151.176403 C95.9763478,151.176403 96.4432899,151.796204 96.4432899,152.72737 L100.335658,152.72737 C100.335658,150.401442 98.6243043,148.694061 95.1969959,148.694061 C91.9284017,148.694061 89.9042195,149.935336 89.9042195,152.417469 C89.9042195,154.74486 91.6157826,155.363407 93.6399648,155.984672 C95.9763478,156.760887 96.9112774,156.914583 96.9112774,157.845748 C96.9112774,158.6205 96.2877122,158.931864 95.3540373,158.931864 C94.26353,158.931864 93.4856418,158.46555 93.4856418,157.225738 L89.7461325,157.225738 C89.7461325,160.016726 91.9284017,161.567693 95.3540373,161.567693 C98.3114762,161.567693 100.8026,160.481577 100.8026,157.689334 C100.4927,155.208457 98.7784182,154.588655 96.5988675,153.968645" id="Fill-85" fill="#FEFEFE"></path>
            <g id="Group-89" transform="translate(89.708075, 148.639379)">
                <mask id="mask-34" fill="white">
                    <use xlink:href="#path-33"></use>
                </mask>
                <g id="Clip-88"></g>
                <polygon id="Fill-87" fill="#FEFEFE" mask="url(#mask-34)" points="-3.98646791 16.9525259 15.1184244 16.9525259 15.1184244 -3.96953002 -3.98646791 -3.96953002"></polygon>
            </g>
            <path d="M79.3140453,28.9553199 C79.3140453,24.6119017 75.7328321,21.0449079 71.3722669,21.0449079 L0.052047412,21.0449079 L0.052047412,26.318028 L71.3722669,26.318028 C72.7739294,26.318028 74.0185505,27.5578395 74.0185505,28.9553199 C74.0185505,30.3500818 72.7739294,31.591148 71.3722669,31.591148 L0.052047412,31.591148 L0.052047412,36.8657319 L71.3722669,36.8657319 C75.886946,36.8657319 79.3140453,33.2987381 79.3140453,28.9553199" id="Fill-90" fill="#FEFEFE"></path>
            <g id="Group-94" transform="translate(0.000000, 20.873333)">
                <mask id="mask-36" fill="white">
                    <use xlink:href="#path-35"></use>
                </mask>
                <g id="Clip-93"></g>
                <polygon id="Fill-92" fill="#FEFEFE" mask="url(#mask-36)" points="-3.97224845 20.0166108 83.3381739 20.0166108 83.3381739 -3.85263768 -3.97224845 -3.85263768"></polygon>
            </g>
            <path d="M79.3140453,70.9881114 C79.3140453,66.6446932 75.886946,63.0762356 71.3722669,63.0762356 L0.052047412,63.0762356 L0.052047412,68.3508195 L71.3722669,68.3508195 C72.7739294,68.3508195 74.0185505,69.5918857 74.0185505,70.9881114 C74.0185505,72.384128 72.7739294,73.6239395 71.3722669,73.6239395 L0.052047412,73.6239395 L0.052047412,78.8985234 L71.3722669,78.8985234 C75.7328321,78.8985234 79.3140453,75.3315296 79.3140453,70.9881114" id="Fill-95" fill="#FEFEFE"></path>
            <g id="Group-99" transform="translate(0.000000, 62.904389)">
                <mask id="mask-38" fill="white">
                    <use xlink:href="#path-37"></use>
                </mask>
                <g id="Clip-98"></g>
                <polygon id="Fill-97" fill="#FEFEFE" mask="url(#mask-38)" points="-3.97224845 20.0182836 83.3381739 20.0182836 83.3381739 -3.85242857 -3.97224845 -3.85242857"></polygon>
            </g>
            <path d="M89.9038849,70.9881114 C89.9038849,64.7838257 86.7891954,59.1993412 81.9606427,55.9420389 C79.0015308,53.7725255 75.4203176,52.5299954 71.3723714,52.5299954 L0.0521519669,52.5299954 L0.0521519669,55.1658236 L0.0521519669,57.8045793 L71.3723714,57.8045793 C78.6918393,57.8045793 84.6069263,63.6975006 84.6069263,70.9881114 C84.6069263,78.278513 78.6918393,84.1716435 71.3723714,84.1716435 L0.0521519669,84.1716435 L0.0521519669,86.8089354 L0.0521519669,89.4447636 L71.3723714,89.4447636 C81.4939097,89.4447636 89.9038849,81.2229872 89.9038849,70.9881114" id="Fill-100" fill="#FEFEFE"></path>
            <g id="Group-104" transform="translate(0.000000, 52.448903)">
                <mask id="mask-40" fill="white">
                    <use xlink:href="#path-39"></use>
                </mask>
                <g id="Clip-103"></g>
                <polygon id="Fill-102" fill="#FEFEFE" mask="url(#mask-40)" points="-3.97203934 41.0200104 93.9283271 41.0200104 93.9283271 -3.94318219 -3.97203934 -3.94318219"></polygon>
            </g>
            <path d="M81.8047723,44.1539797 C86.6337433,40.8968865 89.7467598,35.3138658 89.7467598,28.9558845 C89.7467598,18.8732406 81.4938261,10.4977685 71.216501,10.4977685 L0.0518592133,10.4977685 L0.0518592133,13.1335967 L0.0518592133,15.7708886 L71.3720787,15.7708886 C78.6917557,15.7708886 84.6083064,21.664019 84.6083064,28.9558845 C84.6083064,36.2435677 78.6917557,42.1379528 71.3720787,42.1379528 L0.0518592133,42.1379528 L0.0518592133,44.7752447 L0.0518592133,47.4110729 L71.3720787,47.4110729 C75.265911,47.4110729 78.8473333,46.1714704 81.8047723,44.1539797" id="Fill-105" fill="#FEFEFE"></path>
            <g id="Group-109" transform="translate(0.000000, 10.417847)">
                <mask id="mask-42" fill="white">
                    <use xlink:href="#path-41"></use>
                </mask>
                <g id="Clip-108"></g>
                <polygon id="Fill-107" fill="#FEFEFE" mask="url(#mask-42)" points="-3.97224845 41.017501 93.7710766 41.017501 93.7710766 -3.94422774 -3.97224845 -3.94422774"></polygon>
            </g>
            <path d="M85.2318089,96.4250764 C86.943372,95.4937017 88.5018669,94.562536 89.9035294,93.3229335 C91.3037282,92.0816582 92.7068545,90.8418466 93.7958979,89.4443663 C94.4184176,88.6696147 94.8851505,88.0483497 95.5087157,87.2735981 C97.5328979,84.3264056 98.9343513,81.0691033 99.7139124,77.6570598 C100.023604,76.5709439 100.180645,75.4860826 100.336223,74.3997576 C100.491801,73.3138507 100.491801,72.2289894 100.491801,71.1441282 C100.491801,69.5916975 100.336223,68.1954718 100.180645,66.800919 C99.7139124,63.8522627 98.9343513,61.2162255 97.6897302,58.734093 C97.0676288,57.4928176 96.4423907,56.2532151 95.6645025,55.1668901 C94.4184176,53.4609729 93.0167551,51.7548466 91.4593058,50.35883 C92.3942354,49.5824056 93.1735874,48.6541675 93.9514756,47.7230019 C98.1566723,42.7597824 100.648842,36.2441323 100.648842,29.2648859 C100.648842,13.2891116 87.568401,0.260529814 71.5275936,0.260529814 L0.0530511387,0.260529814 L0.0530511387,5.53490455 L71.3720159,5.53490455 C84.4522478,5.53490455 95.1975605,16.2363041 95.1975605,29.2648859 C95.1975605,36.3988735 92.0832892,42.604623 87.1002043,46.9465774 C85.6983327,48.1878528 83.9869787,49.272505 82.2729062,50.2038797 C83.9869787,50.823681 85.6983327,51.9097969 87.1002043,53.3060226 C92.0832892,57.6492317 95.1975605,64.007213 95.1975605,70.9877141 C95.1975605,84.0162959 84.6080346,94.7189501 71.3720159,94.7189501 L0.0530511387,94.7189501 L0.0530511387,99.9920702 L71.3720159,99.9920702 C76.3548917,99.9920702 81.1821899,98.7522586 85.2318089,96.4250764" id="Fill-110" fill="#FEFEFE"></path>
            <g id="Group-114" transform="translate(0.000000, 0.171470)">
                <mask id="mask-44" fill="white">
                    <use xlink:href="#path-43"></use>
                </mask>
                <g id="Clip-113"></g>
                <polygon id="Fill-112" fill="#FEFEFE" mask="url(#mask-44)" points="-3.9712029 103.844938 104.672803 103.844938 104.672803 -3.93502692 -3.9712029 -3.93502692"></polygon>
            </g>
            <polygon id="Fill-115" fill="#FEFEFE" points="0.0512318841 174.096188 15.7794203 174.096188 15.7794203 172.712718 0.0512318841 172.712718"></polygon>
            <g id="Group-119" transform="translate(0.000000, 172.686998)">
                <mask id="mask-46" fill="white">
                    <use xlink:href="#path-45"></use>
                </mask>
                <g id="Clip-118"></g>
                <polygon id="Fill-117" fill="#FEFEFE" mask="url(#mask-46)" points="-3.97308489 5.43371636 19.803528 5.43371636 19.803528 -3.99838716 -3.97308489 -3.99838716"></polygon>
            </g>
        </g>
    </g>
</svg>