<?xml version="1.0" encoding="UTF-8"?>
<svg width="441px" height="87px" viewBox="0 0 441 87" version="1.1" xmlns="http://www.w3.org/2000/svg" xmlns:xlink="http://www.w3.org/1999/xlink">
    <!-- Generator: Sketch 49.1 (51147) - http://www.bohemiancoding.com/sketch -->
    <title>logo</title>
    <desc>Created with Sketch.</desc>
    <defs></defs>
    <g id="Page-1" stroke="none" stroke-width="1" fill="none" fill-rule="evenodd">
        <g id="Logo" transform="translate(-36.000000, -85.000000)" fill="#FFFFFF">
            <path d="M46.396,86.2 L45.36,96 L43.75,96 L44.394,89.938 L41.3,96 L40.082,96 L38.276,89.938 L37.632,96 L36.022,96 L37.058,86.2 L38.598,86.2 L40.964,93.494 L44.856,86.2 L46.396,86.2 Z M60.942,87.642 L56.896,87.642 L56.602,90.414 L60.648,90.414 L60.494,91.856 L56.448,91.856 L56.168,94.558 L60.214,94.558 L60.06,96 L54.404,96 L55.44,86.2 L61.096,86.2 L60.942,87.642 Z M75.572,87.642 L71.526,87.642 L71.232,90.414 L75.278,90.414 L75.124,91.856 L71.078,91.856 L70.798,94.558 L74.844,94.558 L74.69,96 L69.034,96 L70.07,86.2 L75.726,86.2 L75.572,87.642 Z M85.204,96 L86.086,87.642 L83.664,87.642 L83.818,86.2 L90.286,86.2 L90.132,87.642 L87.696,87.642 L86.814,96 L85.204,96 Z M112.518,96.238 C109.536,96.238 107.912,94.026 107.912,91.604 C107.912,88.72 110.194,85.962 113.512,85.962 C116.494,85.962 118.104,88.174 118.104,90.596 C118.104,93.48 115.836,96.238 112.518,96.238 Z M112.658,94.796 C114.856,94.796 116.41,92.78 116.41,90.708 C116.41,88.972 115.318,87.404 113.372,87.404 C111.16,87.404 109.62,89.42 109.62,91.492 C109.62,93.214 110.698,94.796 112.658,94.796 Z M127.022,96 L127.904,87.642 L125.482,87.642 L125.636,86.2 L132.104,86.2 L131.95,87.642 L129.514,87.642 L128.632,96 L127.022,96 Z M144.886,96 L145.32,91.856 L141.274,91.856 L140.84,96 L139.23,96 L140.266,86.2 L141.876,86.2 L141.428,90.414 L145.474,90.414 L145.922,86.2 L147.532,86.2 L146.496,96 L144.886,96 Z M162.078,87.642 L158.032,87.642 L157.738,90.414 L161.784,90.414 L161.63,91.856 L157.584,91.856 L157.304,94.558 L161.35,94.558 L161.196,96 L155.54,96 L156.576,86.2 L162.232,86.2 L162.078,87.642 Z M170.17,96 L171.206,86.2 L174.72,86.2 C176.666,86.2 177.828,87.614 177.828,89.308 C177.828,90.848 176.876,92.22 175.406,92.808 L177.016,96 L175.182,96 L173.698,93.06 L172.088,93.06 L171.78,96 L170.17,96 Z M174.146,91.618 C175.35,91.618 176.218,90.596 176.218,89.434 C176.218,88.454 175.602,87.642 174.566,87.642 L172.662,87.642 L172.242,91.618 L174.146,91.618 Z M196.196,96 L197.232,86.2 L200.746,86.2 C202.692,86.2 203.854,87.614 203.854,89.308 C203.854,91.296 202.272,93.06 200.018,93.06 L198.114,93.06 L197.806,96 L196.196,96 Z M200.172,91.618 C201.376,91.618 202.244,90.596 202.244,89.434 C202.244,88.454 201.628,87.642 200.592,87.642 L198.688,87.642 L198.268,91.618 L200.172,91.618 Z M211.54,96 L212.576,86.2 L216.09,86.2 C218.036,86.2 219.198,87.614 219.198,89.308 C219.198,90.848 218.246,92.22 216.776,92.808 L218.386,96 L216.552,96 L215.068,93.06 L213.458,93.06 L213.15,96 L211.54,96 Z M215.516,91.618 C216.72,91.618 217.588,90.596 217.588,89.434 C217.588,88.454 216.972,87.642 215.936,87.642 L214.032,87.642 L213.612,91.618 L215.516,91.618 Z M231.672,96.238 C228.69,96.238 227.066,94.026 227.066,91.604 C227.066,88.72 229.348,85.962 232.666,85.962 C235.648,85.962 237.258,88.174 237.258,90.596 C237.258,93.48 234.99,96.238 231.672,96.238 Z M231.812,94.796 C234.01,94.796 235.564,92.78 235.564,90.708 C235.564,88.972 234.472,87.404 232.526,87.404 C230.314,87.404 228.774,89.42 228.774,91.492 C228.774,93.214 229.852,94.796 231.812,94.796 Z M251.804,87.642 L247.758,87.642 L247.422,90.75 L251.468,90.75 L251.328,92.192 L247.282,92.192 L246.876,96 L245.266,96 L246.302,86.2 L251.958,86.2 L251.804,87.642 Z M266.336,87.642 L262.29,87.642 L261.996,90.414 L266.042,90.414 L265.888,91.856 L261.842,91.856 L261.562,94.558 L265.608,94.558 L265.454,96 L259.798,96 L260.834,86.2 L266.49,86.2 L266.336,87.642 Z M274.344,92.794 L275.954,92.794 C275.814,94.068 276.542,94.796 277.606,94.796 C278.6,94.796 279.412,94.166 279.412,93.214 C279.412,92.332 278.698,92.038 278.012,91.786 C276.346,91.17 275.086,90.638 275.086,88.986 C275.086,87.11 276.71,85.962 278.418,85.962 C280.238,85.962 281.414,87.25 281.232,89.028 L279.622,89.028 C279.72,88.062 279.244,87.404 278.292,87.404 C277.466,87.404 276.71,87.894 276.71,88.734 C276.71,89.49 277.34,89.84 277.998,90.092 C279.566,90.694 281.05,91.226 281.05,93.018 C281.05,94.978 279.3,96.238 277.396,96.238 C275.464,96.238 274.12,94.922 274.344,92.794 Z M289.31,92.794 L290.92,92.794 C290.78,94.068 291.508,94.796 292.572,94.796 C293.566,94.796 294.378,94.166 294.378,93.214 C294.378,92.332 293.664,92.038 292.978,91.786 C291.312,91.17 290.052,90.638 290.052,88.986 C290.052,87.11 291.676,85.962 293.384,85.962 C295.204,85.962 296.38,87.25 296.198,89.028 L294.588,89.028 C294.686,88.062 294.21,87.404 293.258,87.404 C292.432,87.404 291.676,87.894 291.676,88.734 C291.676,89.49 292.306,89.84 292.964,90.092 C294.532,90.694 296.016,91.226 296.016,93.018 C296.016,94.978 294.266,96.238 292.362,96.238 C290.43,96.238 289.086,94.922 289.31,92.794 Z M304.36,96 L305.396,86.2 L307.062,86.2 L306.026,96 L304.36,96 Z M319.676,96.238 C316.694,96.238 315.07,94.026 315.07,91.604 C315.07,88.72 317.352,85.962 320.67,85.962 C323.652,85.962 325.262,88.174 325.262,90.596 C325.262,93.48 322.994,96.238 319.676,96.238 Z M319.816,94.796 C322.014,94.796 323.568,92.78 323.568,90.708 C323.568,88.972 322.476,87.404 320.53,87.404 C318.318,87.404 316.778,89.42 316.778,91.492 C316.778,93.214 317.856,94.796 319.816,94.796 Z M336.07,86.2 L339.206,93.172 L339.948,86.2 L341.558,86.2 L340.522,96 L338.758,96 L335.608,89.028 L334.88,96 L333.27,96 L334.306,86.2 L336.07,86.2 Z M356.496,96 L354.802,96 L354.508,94.754 L350.826,94.754 L350.28,96 L348.586,96 L353.01,86.2 L354.144,86.2 L356.496,96 Z M354.172,93.312 L353.29,88.874 L351.47,93.312 L354.172,93.312 Z M366.324,94.558 L369.348,94.558 L369.194,96 L364.56,96 L365.596,86.2 L367.206,86.2 L366.324,94.558 Z M377.482,92.794 L379.092,92.794 C378.952,94.068 379.68,94.796 380.744,94.796 C381.738,94.796 382.55,94.166 382.55,93.214 C382.55,92.332 381.836,92.038 381.15,91.786 C379.484,91.17 378.224,90.638 378.224,88.986 C378.224,87.11 379.848,85.962 381.556,85.962 C383.376,85.962 384.552,87.25 384.37,89.028 L382.76,89.028 C382.858,88.062 382.382,87.404 381.43,87.404 C380.604,87.404 379.848,87.894 379.848,88.734 C379.848,89.49 380.478,89.84 381.136,90.092 C382.704,90.694 384.188,91.226 384.188,93.018 C384.188,94.978 382.438,96.238 380.534,96.238 C378.602,96.238 377.258,94.922 377.482,92.794 Z M407.638,96.238 C404.656,96.238 403.032,94.026 403.032,91.604 C403.032,88.72 405.314,85.962 408.632,85.962 C411.614,85.962 413.224,88.174 413.224,90.596 C413.224,93.48 410.956,96.238 407.638,96.238 Z M407.778,94.796 C409.976,94.796 411.53,92.78 411.53,90.708 C411.53,88.972 410.438,87.404 408.492,87.404 C406.28,87.404 404.74,89.42 404.74,91.492 C404.74,93.214 405.818,94.796 407.778,94.796 Z M424.032,86.2 L427.168,93.172 L427.91,86.2 L429.52,86.2 L428.484,96 L426.72,96 L423.57,89.028 L422.842,96 L421.232,96 L422.268,86.2 L424.032,86.2 Z M51.592,160.48 L65.124,160.48 L64.104,170 L39.556,170 L44.588,122.4 L55.604,122.4 L51.592,160.48 Z M106.585167,131.24 L88.5651671,131.24 L87.4091671,142.052 L105.429167,142.052 L104.545167,150.688 L86.5251671,150.688 L85.4371671,161.16 L103.457167,161.16 L102.505167,170 L73.4691671,170 L78.5011671,122.4 L107.537167,122.4 L106.585167,131.24 Z M121.526334,170 L125.538334,131.92 L114.794334,131.92 L115.814334,122.4 L148.386334,122.4 L147.366334,131.92 L136.554334,131.92 L132.542334,170 L121.526334,170 Z M151.767501,154.224 L162.783501,154.224 C162.239501,159.256 164.959501,162.452 169.447501,162.452 C173.323501,162.452 176.383501,160.004 176.383501,156.4 C176.383501,152.932 173.527501,151.708 169.651501,150.212 C161.491501,147.084 155.099501,144.432 155.099501,136.068 C155.099501,126.208 164.007501,121.176 173.391501,121.176 C184.543501,121.176 189.507501,128.248 188.623501,136.34 L177.607501,136.34 C178.083501,131.988 176.179501,129.472 172.371501,129.472 C169.107501,129.472 166.115501,131.376 166.115501,134.708 C166.115501,137.7 168.631501,139.264 172.303501,140.624 C180.327501,143.548 187.467501,146.268 187.467501,155.176 C187.467501,164.832 179.171501,171.224 168.223501,171.224 C157.139501,171.224 150.679501,164.696 151.767501,154.224 Z M213.764668,145.656 L212.880668,153.952 L195.676668,153.952 L196.560668,145.656 L213.764668,145.656 Z M276.577835,122.4 L271.545835,170 L260.801835,170 L263.929835,140.488 L250.533835,170 L242.373835,170 L234.893835,140.488 L231.765835,170 L221.021835,170 L226.053835,122.4 L238.769835,122.4 L247.949835,155.516 L264.065835,122.4 L276.577835,122.4 Z M316.883003,131.24 L298.863003,131.24 L297.707003,142.052 L315.727003,142.052 L314.843003,150.688 L296.823003,150.688 L295.735003,161.16 L313.755003,161.16 L312.803003,170 L283.767003,170 L288.799003,122.4 L317.835003,122.4 L316.883003,131.24 Z M357.73217,131.24 L339.71217,131.24 L338.55617,142.052 L356.57617,142.052 L355.69217,150.688 L337.67217,150.688 L336.58417,161.16 L354.60417,161.16 L353.65217,170 L324.61617,170 L329.64817,122.4 L358.68417,122.4 L357.73217,131.24 Z M372.673337,170 L376.685337,131.92 L365.941337,131.92 L366.961337,122.4 L399.533337,122.4 L398.513337,131.92 L387.701337,131.92 L383.689337,170 L372.673337,170 Z M394.482504,164.424 C394.482504,160.412 397.950504,157.012 402.030504,157.012 C405.702504,157.012 408.286504,159.8 408.286504,163.2 C408.286504,167.212 404.818504,170.612 400.738504,170.612 C397.066504,170.612 394.482504,167.824 394.482504,164.424 Z M418.671671,170 L423.703671,122.4 L434.855671,122.4 L429.823671,170 L418.671671,170 Z M449.252838,170 L453.264838,131.92 L442.520838,131.92 L443.540838,122.4 L476.112838,122.4 L475.092838,131.92 L464.280838,131.92 L460.268838,170 L449.252838,170 Z" id="logo"></path>
        </g>
    </g>
</svg>