<?xml version="1.0" encoding="UTF-8" standalone="no"?>
<svg width="27px" height="25px" viewBox="0 0 27 25" version="1.1" xmlns="http://www.w3.org/2000/svg" xmlns:xlink="http://www.w3.org/1999/xlink">
    <!-- Generator: Sketch 41 (35326) - http://www.bohemiancoding.com/sketch -->
    <title>out</title>
    <desc>Created with Sketch.</desc>
    <defs></defs>
    <g id="Symbols" stroke="none" stroke-width="1" fill="none" fill-rule="evenodd">
        <g id="Background" transform="translate(-1403.000000, -105.000000)" fill="#FFFFFF">
            <g id="out" transform="translate(1403.000000, 105.000000)">
                <path d="M25.9265845,24.9423176 L12.3759346,24.9423176 C12.0476149,24.9423176 11.7789897,24.6695202 11.7789897,24.3361011 C11.7789897,24.002682 12.0476149,23.7298846 12.3759346,23.7298846 L25.3296396,23.7298846 L25.3296396,1.51205085 L12.3759346,1.51205085 C12.0476149,1.51205085 11.7789897,1.23925344 11.7789897,0.905834374 C11.7789897,0.572415313 12.0476149,0.2996179 12.3759346,0.2996179 L25.9265845,0.2996179 C26.2549042,0.2996179 26.5235294,0.572415313 26.5235294,0.905834374 L26.5235294,24.3361011 C26.5235294,24.6695202 26.2847514,24.9423176 25.9265845,24.9423176 Z M8.40625084,18.7285987 L0.586272277,13.0604747 C0.22810532,12.8179881 0.22810532,12.3027041 0.586272277,12.0602175 L8.40625084,6.39209347 C8.67487606,6.21022853 9.03304301,6.27085017 9.24197374,6.54364759 C9.42105722,6.816445 9.36136272,7.18017488 9.09273751,7.39235065 L2.79496851,11.969285 L23.568652,11.969285 C23.8969717,11.969285 24.1655969,12.2420824 24.1655969,12.5755015 C24.1655969,12.9089206 23.8969717,13.181718 23.568652,13.181718 L2.79496851,13.181718 L9.09273751,17.7586524 C9.36136272,17.9405173 9.42105722,18.334558 9.24197374,18.6073554 C9.06289026,18.8195312 8.73457055,18.9104637 8.40625084,18.7285987 Z" id="Shape"></path>
            </g>
        </g>
    </g>
</svg>